<svg width="58" height="63" viewBox="0 0 58 63" fill="none" xmlns="http://www.w3.org/2000/svg">
<path d="M47.6546 44.0146C37.8273 41.0549 35.1738 31.9633 35.1738 31.9633C35.1738 31.9633 42.4114 25.8569 52.2387 28.8166C56.6399 30.1433 58.9192 34.5404 57.652 38.7375C56.3847 42.9346 52.0601 45.3413 47.6588 44.0146" fill="#D6EEFA"/>
<path d="M47.4722 43.6745C47.4722 43.6022 47.4637 43.5257 47.4595 43.4534C47.4339 43.1132 47.3999 42.7687 47.3532 42.4285C47.3489 42.386 47.3404 42.3477 47.3319 42.3052C47.2851 41.9862 47.2213 41.6716 47.1533 41.3569C47.1405 41.2973 47.1278 41.2379 47.115 41.1742C47.0385 40.8425 46.9449 40.5106 46.8429 40.179C46.8216 40.1109 46.8004 40.0429 46.7749 39.9748C46.6643 39.6389 46.5495 39.2989 46.4134 38.9672C45.7925 37.4236 45.5119 35.7693 45.7075 34.1151C45.9882 31.687 46.4517 28.9103 47.1959 25.8996C50.7466 12.2153 37.9809 8.71136 37.5089 8.57103C37.0326 8.42645 24.4455 4.33128 19.8827 17.7093C18.6197 21.2728 17.4418 24.3857 16.4382 26.9286C16.3277 26.9924 16.2468 27.0689 16.2086 27.1624C14.7457 30.5643 13.8868 32.6268 13.8783 32.6353L13.1767 34.3618C12.6834 35.5737 12.2921 36.5348 11.9306 37.7382C11.4586 39.3201 11.2205 40.9104 11.212 42.4711C11.2035 45.0735 11.8371 47.5951 13.0958 49.8532C13.2234 50.0785 13.3553 50.3041 13.4913 50.5209C13.9166 51.2013 14.4056 51.8562 14.9499 52.4771C15.2008 52.762 15.4645 53.0384 15.7409 53.3105C15.928 53.4976 16.1235 53.6805 16.3234 53.8591C16.6934 54.1908 17.0803 54.5097 17.4885 54.8159C17.8032 55.054 18.1349 55.2793 18.4709 55.5005C18.6537 55.6195 18.8409 55.7343 19.028 55.8491C19.2661 55.9937 19.5085 56.1297 19.7594 56.2658C20.1123 56.4572 20.4738 56.64 20.848 56.8144C21.7793 57.2481 22.7742 57.6308 23.8331 57.9498C23.9224 57.9753 24.0118 57.9967 24.1011 58.0222C24.5773 58.1583 25.0535 58.2815 25.5298 58.3835C26.274 58.5494 27.014 58.6771 27.7496 58.7664C29.3018 58.9535 30.8369 58.9789 32.3167 58.8513C32.6186 58.8258 32.9205 58.7918 33.2182 58.7535C37.6832 58.1709 41.6294 56.1892 44.2404 53.1488C44.9378 52.3366 45.5374 51.4521 46.0265 50.4995C46.2731 50.0233 46.49 49.5258 46.6771 49.0156C46.7706 48.7604 46.8556 48.501 46.9364 48.2373C47.0385 47.8929 47.1236 47.5441 47.2001 47.1954C47.2171 47.1231 47.2298 47.0551 47.2426 46.9828C47.3106 46.6469 47.3617 46.3068 47.4042 45.9666C47.4127 45.9071 47.417 45.8432 47.4213 45.7837C47.4553 45.4648 47.4765 45.1417 47.485 44.8228C47.485 44.7802 47.4893 44.7419 47.4893 44.6994C47.4978 44.355 47.4892 44.0148 47.468 43.6704L47.4722 43.6745Z" fill="#62BFED"/>
<path d="M16.9694 25.5762C16.7865 26.044 16.6122 26.4991 16.4421 26.9371C16.3315 27.0009 16.2464 27.0732 16.2082 27.1667C15.7617 28.2043 15.3789 29.1143 15.0473 29.8797C6.96344 29.2163 3.60403 23.2799 3.44244 22.9737C2.86411 21.9234 3.25109 20.601 4.30143 20.0269C5.34752 19.4529 6.66148 19.8356 7.24406 20.8774C7.38014 21.1198 10.1187 25.7378 16.9651 25.5762H16.9694Z" fill="#4D98D3"/>
<path d="M21.5195 57.1163C21.5153 57.1928 21.5153 57.278 21.5153 57.3503C21.3452 57.363 21.1496 57.3544 20.9327 57.3119C19.2913 56.9972 14.9368 58.2816 13.8652 58.7408H13.8439C13.593 58.8386 13.3337 58.8938 13.0828 58.8853C12.6661 58.8811 12.2961 58.7449 11.9346 58.562C9.91046 57.5712 9.06849 55.0709 9.91897 52.8894C9.95299 52.7959 9.99127 52.7022 10.038 52.6087C10.0466 52.5874 10.0593 52.5747 10.0678 52.5534C10.6207 51.4903 11.8283 51.0142 12.7936 51.4862C13.3209 51.7456 13.6696 52.2388 13.793 52.8171C13.8567 53.0595 13.946 53.3359 14.0565 53.608C14.5413 53.4124 15.0431 53.2509 15.5577 53.1276C17.131 54.7307 19.1212 56.0957 21.5238 57.1078L21.5195 57.1163Z" fill="#FDD700"/>
<path d="M12.3683 58.1467C13.0274 57.9184 13.16 56.5731 12.6643 55.1417C12.1687 53.7103 11.2324 52.7348 10.5733 52.9631C9.91419 53.1913 9.78173 54.5368 10.2774 55.9682C10.7731 57.3996 11.7092 58.3749 12.3683 58.1467Z" fill="#DDA129"/>
<path d="M38.2268 43.649C41.4288 43.649 44.516 43.2664 47.3524 42.4584C47.1865 41.2933 46.8762 40.145 46.4297 39.0266C40.0638 41.0082 31.4952 40.7106 21.417 36.7559C18.7337 35.7055 16.1823 34.3447 13.8349 32.7458C13.6861 33.1157 13.1759 34.366 13.1759 34.366C12.925 34.9826 12.6996 35.5355 12.4912 36.0883C14.8811 37.649 17.4452 38.9884 20.1285 40.043C26.0096 42.352 32.3202 43.649 38.2268 43.649Z" fill="#FDD700"/>
<path d="M18.9212 43.2196C16.3697 42.1437 13.8735 40.8338 11.5305 39.337C11.2626 40.6722 11.1648 42.0076 11.2328 43.3174C13.2314 44.4825 15.3449 45.5456 17.5519 46.4726C24.5386 49.4195 31.5167 50.6058 37.5679 50.6058C40.838 50.6058 43.8402 50.2571 46.4214 49.649C46.617 49.1898 46.7914 48.7222 46.936 48.2332C47.1869 47.404 47.3443 46.5619 47.425 45.7199C38.7331 48.5776 26.7754 46.5237 18.9254 43.2111L18.9212 43.2196Z" fill="#FDD700"/>
<path d="M17.9897 50.2869C15.9528 49.5428 13.9627 48.6159 12.0576 47.5443C13.4737 51.5883 16.6587 55.0624 21.5192 57.1163C21.4129 59.0979 22.5441 60.9775 24.4151 61.5984C24.7978 61.7259 25.1848 61.8109 25.593 61.7599C25.8482 61.7301 26.0991 61.6409 26.333 61.5091C26.3372 61.5091 26.3457 61.5092 26.35 61.5049C27.328 60.9138 31.0956 59.5359 32.9199 58.7832C37.8272 58.2134 42.1348 55.9598 44.7756 52.4686C44.0782 52.7322 43.3553 52.9575 42.5984 53.1531C36.0624 54.8328 27.783 53.8674 17.9854 50.2784L17.9897 50.2869Z" fill="#FDD700"/>
<path d="M21.7914 56.1765C21.7447 56.1765 21.6979 56.1681 21.6511 56.1468C21.464 56.0703 21.3747 55.8534 21.4512 55.6663C22.1061 54.0802 23.5434 54.0248 23.603 54.0206C25.3379 53.9355 26.2182 54.8881 26.5413 55.3686L27.5619 55.1348C27.7617 55.088 27.9574 55.2113 27.9999 55.4111C28.0467 55.6068 27.9234 55.8065 27.7235 55.849L26.4393 56.1424C26.2692 56.1807 26.0948 56.0958 26.0226 55.9342C26.0013 55.8831 25.4059 54.6669 23.6284 54.7477C23.5816 54.7477 22.5908 54.8072 22.1273 55.9383C22.0678 56.0787 21.9318 56.1638 21.7872 56.1638L21.7914 56.1765Z" fill="#DDA129"/>
<path d="M24.6864 61.188C25.317 60.8899 25.3034 59.538 24.656 58.1685C24.0086 56.7989 22.9726 55.9303 22.342 56.2284C21.7114 56.5265 21.725 57.8784 22.3724 59.2479C23.0198 60.6174 24.0558 61.4861 24.6864 61.188Z" fill="#DDA129"/>
<path d="M35.2076 0.0152135C34.0211 -0.125116 32.9453 0.721087 32.8007 1.90325C32.6944 2.78775 33.1409 3.61262 33.8681 4.03361L33.2515 8.48181C33.1877 8.92831 33.5024 9.34066 33.9489 9.40019C33.9871 9.40444 34.0254 9.4087 34.0637 9.4087C34.4634 9.4087 34.8122 9.11533 34.8717 8.7071L35.4883 4.25474C36.3303 4.04212 36.9937 3.33641 37.1042 2.42214C37.2445 1.23572 36.3982 0.159795 35.2161 0.0152135H35.2076Z" fill="#4D98D3"/>
<path d="M45.0987 3.97826C44.1419 3.26386 42.7855 3.45522 42.0711 4.41201C41.5182 5.14768 41.514 6.11733 41.9733 6.85299L39.3453 10.4972C39.0817 10.8629 39.1624 11.3733 39.5281 11.6369C39.6727 11.739 39.8385 11.79 40.0043 11.79C40.2552 11.79 40.5062 11.671 40.6677 11.4499L43.2957 7.80542C44.1122 8.00103 45.0009 7.71606 45.5367 7.00166C46.2511 6.04487 46.0598 4.68851 45.103 3.97411L45.0987 3.97826Z" fill="#4D98D3"/>
<path d="M1.73338 18.9935C1.77165 18.8616 1.69515 18.7298 1.56332 18.6916C1.43575 18.6533 1.29969 18.7298 1.26142 18.8616C1.23591 18.9552 0.63633 21.1708 2.01836 23.8285C2.06088 23.9136 2.14594 23.9604 2.23524 23.9604C2.27351 23.9604 2.31179 23.9518 2.35006 23.9348C2.46913 23.871 2.5159 23.7263 2.45211 23.603C1.16364 21.1239 1.72487 19.0147 1.73338 18.9935Z" fill="#281E1E"/>
<path d="M0.623132 19.1679C0.661403 19.0361 0.584798 18.9043 0.452973 18.866C0.325401 18.8277 0.189341 18.9042 0.151069 19.0361C0.125555 19.1296 -0.474021 21.3452 0.908009 24.0029C0.950533 24.088 1.03559 24.1346 1.12489 24.1346C1.16316 24.1346 1.20144 24.1263 1.23971 24.1093C1.35878 24.0455 1.40555 23.9008 1.34176 23.7774C0.0532848 21.2983 0.614627 19.1892 0.623132 19.1679Z" fill="#281E1E"/>
<path d="M14.0651 6.79343C13.9758 6.75516 11.8752 5.83656 9.03883 6.81461C8.91126 6.85713 8.84317 6.99745 8.8857 7.12503C8.91972 7.22708 9.01754 7.29093 9.11534 7.29093C9.14086 7.29093 9.1706 7.28677 9.19612 7.27826C11.8411 6.364 13.844 7.23134 13.861 7.23985C13.9843 7.29513 14.1289 7.23983 14.1842 7.11651C14.2395 6.99319 14.1842 6.84871 14.0608 6.79343H14.0651Z" fill="#281E1E"/>
<path d="M9.11081 6.16404C9.13633 6.16404 9.16607 6.15967 9.19158 6.15116C11.8323 5.2369 13.8352 6.10445 13.8565 6.11296C13.9798 6.16824 14.1244 6.11294 14.1796 5.98962C14.2349 5.8663 14.1796 5.72182 14.0563 5.66654C13.967 5.62827 11.8664 4.70966 9.03004 5.68772C8.90247 5.73024 8.83438 5.87056 8.87691 5.99813C8.91093 6.10019 9.00875 6.16404 9.10656 6.16404H9.11081Z" fill="#281E1E"/>
<path d="M12.9929 28.4466C13.0014 28.4806 13.0184 28.5061 13.0312 28.5359L12.4316 26.0482L12.9886 28.4466H12.9929Z" fill="#FFB7B6"/>
<path d="M12.8148 26.2438L13.0359 28.5488C13.2698 29.0804 14.2138 29.3185 15.2472 29.0718C16.3485 28.8125 17.1268 28.1066 16.9822 27.5027L16.8674 27.0179L16.2763 25.704C15.0304 26.2143 13.2953 26.2397 12.8105 26.2397L12.8148 26.2438Z" fill="#FFB7B6"/>
<path d="M15.6337 25.4062C15.5529 25.436 15.4763 25.4658 15.3913 25.4955C15.353 25.5083 15.3147 25.521 15.2807 25.5337C15.0001 25.623 14.7109 25.704 14.4132 25.7762C14.0815 25.8528 13.7498 25.9122 13.4224 25.959C13.3969 25.959 13.3714 25.9632 13.3459 25.9675C13.0482 26.0058 12.759 26.0355 12.4656 26.0483C12.4528 26.0483 12.4444 26.0483 12.4316 26.0483L13.0312 28.5359L13.0397 28.5744V28.553L12.8143 26.2482C13.2991 26.2482 15.034 26.2183 16.28 25.7123L16.8711 27.0264L16.4203 25.1C16.3906 25.1127 16.3566 25.1256 16.3225 25.1384C16.2503 25.1682 16.178 25.2021 16.1057 25.2318C15.9483 25.2956 15.791 25.3509 15.6295 25.4104L15.6337 25.4062Z" fill="#F99D9D"/>
<path d="M8.47328 25.3636C8.2479 25.2658 8.02675 25.1554 7.80988 25.0406C7.76311 25.015 7.7163 24.9936 7.66952 24.9681C7.41863 24.8235 7.17625 24.6663 6.93812 24.492C6.85732 24.4325 6.78086 24.3643 6.70432 24.3005C6.55123 24.1815 6.40238 24.0582 6.2578 23.9264C6.22803 23.9009 6.19828 23.8796 6.16851 23.8541C6.03669 24.7301 5.78999 26.2652 5.78999 26.2652H5.79425C5.78149 26.3417 5.78149 26.4182 5.7985 26.4905C5.92608 27.0433 6.84037 27.2985 7.84393 27.0646C8.75395 26.8562 9.41306 26.3077 9.43007 25.7974H9.43433V25.7123C9.40031 25.7038 9.36629 25.6868 9.33228 25.6741C9.12816 25.6145 8.93249 25.5423 8.73688 25.4658C8.64758 25.4318 8.55833 25.4019 8.46902 25.3636H8.47328Z" fill="#F99D9D"/>
<path d="M21.7659 20.8646C21.2939 21.2983 20.9069 21.5408 20.5795 21.5876C20.5157 21.6854 20.4477 21.7832 20.3796 21.8768C20.3456 21.9278 20.3116 21.9787 20.2776 22.0255C20.2691 22.034 20.2648 22.0469 20.2563 22.0554C20.2095 22.1192 20.1585 22.1743 20.1117 22.2381C20.0436 22.3274 19.9756 22.4168 19.9033 22.5061C20.2393 22.5147 20.6306 22.4764 21.0388 22.3828C22.1742 22.1149 23.0033 21.5153 22.8928 21.0475L22.5144 20.1588C22.2975 20.3714 22.0508 20.5968 21.7617 20.8604L21.7659 20.8646Z" fill="#F99D9D"/>
<path d="M17.9307 24.2623C17.8372 24.3261 17.7394 24.3855 17.6416 24.445C17.7394 24.3855 17.8329 24.3261 17.9307 24.2623Z" fill="#FFB7B6"/>
<path d="M18.6067 23.7734C18.5217 23.8414 18.4366 23.9008 18.3516 23.9646C18.4366 23.9008 18.526 23.8372 18.6067 23.7734Z" fill="#FFB7B6"/>
<path d="M19.2233 23.2375C19.1595 23.297 19.0872 23.3565 19.0234 23.4161C19.0915 23.3565 19.1595 23.3013 19.2233 23.2375Z" fill="#FFB7B6"/>
<path d="M19.8273 22.5996C19.8273 22.5996 19.7934 22.6421 19.7764 22.6634C19.7934 22.6421 19.8103 22.6209 19.8273 22.5996Z" fill="#FFB7B6"/>
<path d="M20.2738 22.0384C20.2738 22.0384 20.2738 22.0341 20.278 22.0298C20.3121 21.9788 20.3461 21.9277 20.3801 21.881C20.3971 21.8555 20.4098 21.83 20.4268 21.8087C20.3758 21.8853 20.3248 21.9661 20.2695 22.0384H20.2738Z" fill="#FFB7B6"/>
<path d="M3.65918 16.1743C3.67194 16.0808 3.68899 15.9914 3.706 15.9021C3.68899 15.9914 3.67194 16.085 3.65918 16.1743Z" fill="#FFB7B6"/>
<path d="M3.57812 17.097C3.57812 17.0163 3.58239 16.9397 3.58664 16.8589C3.58239 16.9354 3.57812 17.0163 3.57812 17.097Z" fill="#FFB7B6"/>
<path d="M14.6987 23.5734C16.3359 23.1907 17.7817 22.472 18.9554 21.5195C18.8108 21.4599 18.679 21.3665 18.5855 21.239C18.3006 20.8477 17.5691 19.4358 17.8285 17.6668C18.0326 16.2677 18.5216 15.7022 19.0872 15.2472C19.3806 15.0133 19.7633 14.9197 20.129 15.009L21.5026 15.3323C21.2644 15.3153 21.0135 15.3663 20.7584 15.5109C19.3381 16.3231 19.0404 18.5982 19.4104 20.1333C19.657 21.1751 20.0142 21.6514 20.5458 21.5961C20.5543 21.5961 20.5671 21.5961 20.5756 21.5961C20.5756 21.5961 20.5756 21.5961 20.5798 21.5961C20.903 21.5451 21.2942 21.3026 21.7663 20.8731C22.0512 20.6095 22.3021 20.3841 22.5189 20.1715C23.2674 19.4358 23.5948 18.8872 23.3822 17.7901C23.127 16.4804 22.4084 15.4428 21.5536 15.345C20.9966 13.1295 19.6273 11.3265 17.8243 10.1358C17.3395 9.87215 16.5187 9.60435 15.7746 10.238C15.1665 9.72341 14.9029 8.8941 14.8901 8.86008C13.4826 8.51988 11.9644 8.49021 10.4463 8.84741C7.01887 9.65111 4.66305 12.1345 3.86786 15.1664C3.85935 15.9148 3.93167 16.6803 4.11027 17.45C5.24566 22.2892 9.68088 24.7599 14.703 23.5819L14.6987 23.5734ZM20.1844 19.6358C19.9462 18.611 20.0313 17.5179 20.4098 17.4286C20.784 17.3393 21.0349 18.4068 21.1667 19.321C21.222 19.691 21.1794 20.1927 20.971 20.4223C20.7116 20.7072 20.4225 20.6606 20.1844 19.6358ZM22.791 17.9687C22.8676 18.3344 22.8081 18.6577 22.6125 18.9043C22.3743 19.2062 22.1915 19.219 21.8853 18.2112C21.5792 17.2034 21.4643 16.5016 21.8343 16.3911C22.2042 16.2805 22.5954 17.0672 22.791 17.9687ZM18.8194 12.9424C18.9342 12.8574 19.1255 12.9168 19.2446 13.0784C19.3637 13.24 19.3637 13.44 19.2446 13.5251C19.1255 13.6101 18.9384 13.5504 18.8194 13.3888C18.7003 13.2273 18.7003 13.0275 18.8194 12.9424ZM16.3912 15.0645C16.625 15.0092 16.8633 15.1538 16.9143 15.3919C16.9696 15.6258 16.825 15.8639 16.5869 15.915C16.353 15.9702 16.1148 15.8256 16.0638 15.5875C16.0085 15.3536 16.153 15.1155 16.3912 15.0645ZM12.479 12.5002C12.564 12.5682 12.6108 12.6703 12.6193 12.7724C12.6278 12.8744 12.5981 12.9766 12.5173 13.0531C12.4322 13.1339 12.3004 13.2188 12.0963 13.2996C12.0963 13.2996 11.4329 13.7886 11.1438 14.839C11.0927 15.0303 11.0502 15.2387 11.0289 15.4683C11.0162 15.5831 11.0119 15.7021 11.0119 15.8255C11.0119 16.0721 11.0289 16.3402 11.0757 16.6251C11.0757 16.6251 11.0757 16.6421 11.0842 16.6676C11.1012 16.7484 11.1352 16.9268 11.1267 17.1182C11.1267 17.1182 11.1267 17.1268 11.1267 17.1311C11.1267 17.1694 11.1182 17.2034 11.1097 17.2374C11.0799 17.3352 11.0247 17.416 10.9524 17.4755C10.9482 17.4755 10.9439 17.484 10.9397 17.4882C10.8971 17.5222 10.8461 17.5563 10.7908 17.5733C10.7397 17.5904 10.6845 17.5988 10.625 17.603C10.6122 17.603 10.5994 17.603 10.5867 17.603C10.5314 17.603 10.4719 17.5902 10.4166 17.569C10.204 17.4797 9.93185 17.3352 9.6767 17.0885C9.42156 16.8461 9.17916 16.5059 9.02607 16.0339C9.02607 16.0339 8.99199 15.9149 8.96648 15.715C8.88994 15.1154 8.87296 13.793 9.96158 12.8149C10.4081 12.4152 10.9907 12.1727 11.5903 12.1983C11.6881 12.1983 11.7859 12.2152 11.8837 12.2365C11.9772 12.2535 12.0707 12.2833 12.16 12.3216C12.177 12.3301 12.1941 12.3343 12.2111 12.3428C12.3047 12.3853 12.3939 12.4365 12.4747 12.5045L12.479 12.5002ZM8.55827 9.84677C8.55827 9.84677 10.0254 9.72338 11.7816 10.2039L11.4797 10.4973C11.4797 10.4973 10.1359 10.0679 8.02246 10.1827L8.55827 9.84677Z" fill="#FFB7B6"/>
<path d="M13.4228 25.9548C13.7503 25.908 14.082 25.8484 14.4137 25.7719C13.4739 25.993 12.5511 26.0865 11.6709 26.0567C11.9345 26.0652 12.2024 26.0568 12.4703 26.0441C12.7595 26.0313 13.0529 26.0016 13.3506 25.9633C13.3761 25.9633 13.4016 25.9633 13.4271 25.9548H13.4228Z" fill="#FFB7B6"/>
<path d="M15.5534 25.4318C15.4598 25.4658 15.3706 25.4998 15.2812 25.5296C15.3195 25.5168 15.3578 25.5041 15.3918 25.4914C15.4471 25.4743 15.4981 25.4488 15.5534 25.4318Z" fill="#FFB7B6"/>
<path d="M16.1107 25.2276C16.183 25.1979 16.2553 25.168 16.3276 25.134C16.3573 25.1212 16.3871 25.1042 16.4169 25.0914C16.3148 25.1382 16.2128 25.1851 16.1064 25.2276H16.1107Z" fill="#FFB7B6"/>
<path d="M20.2733 22.0384C20.3286 21.9618 20.3753 21.8853 20.4306 21.8087C20.4773 21.7364 20.5284 21.6683 20.5752 21.5917C20.5667 21.5917 20.5539 21.5917 20.5454 21.5917C20.269 21.6513 20.099 21.6258 20.099 21.6258L19.2357 21.5832C19.1379 21.579 19.0443 21.5536 18.955 21.5153C17.7813 22.4679 16.3312 23.1866 14.6983 23.5693C9.67624 24.7472 5.24102 22.2764 4.10563 17.4371C3.92703 16.6674 3.85471 15.9064 3.86321 15.1537C3.84195 15.2388 3.82499 15.3237 3.80373 15.4087C3.76546 15.5703 3.7357 15.732 3.70593 15.8936C3.68892 15.9829 3.67187 16.0765 3.65911 16.1658C3.62509 16.3911 3.60386 16.6207 3.58685 16.8503C3.5826 16.9269 3.57834 17.0077 3.57834 17.0885C3.56983 17.2926 3.56983 17.4967 3.57408 17.7008C3.57408 17.7561 3.57408 17.8113 3.57408 17.8709C3.58684 18.126 3.60806 18.3813 3.64208 18.6364C3.65059 18.7002 3.65912 18.7639 3.66762 18.8277C3.70589 19.0956 3.75271 19.3635 3.8165 19.6314C4.23323 21.4004 5.08796 22.8462 6.25311 23.922C6.3977 24.0539 6.54655 24.1773 6.69964 24.2964C6.78043 24.3602 6.85264 24.4281 6.93344 24.4876C7.16732 24.6577 7.4098 24.8194 7.66494 24.964C7.71172 24.9895 7.75842 25.0107 7.8052 25.0362C8.02207 25.1553 8.23897 25.2617 8.4686 25.3595C8.5579 25.3978 8.64715 25.4274 8.73645 25.4615C8.93206 25.538 9.12773 25.6104 9.33185 25.6699C10.0675 25.8953 10.85 26.0271 11.6664 26.0526C12.5467 26.0781 13.4694 25.9889 14.4092 25.7677C14.7026 25.6997 14.9918 25.6145 15.2767 25.5252C15.3703 25.4954 15.4595 25.4614 15.5488 25.4274C15.5743 25.4189 15.5999 25.4105 15.6297 25.3977C15.7913 25.3424 15.9486 25.2829 16.1059 25.2191C16.2122 25.1766 16.31 25.1297 16.4163 25.0829C16.5779 25.0106 16.7395 24.9342 16.8969 24.8577C16.9989 24.8066 17.101 24.7514 17.203 24.6961C17.3519 24.6153 17.5007 24.526 17.6453 24.4409C17.7431 24.3814 17.8409 24.3218 17.9344 24.258C18.079 24.1644 18.2151 24.0625 18.3512 23.9605C18.4362 23.8967 18.5256 23.8328 18.6064 23.769C18.7509 23.6542 18.887 23.5352 19.0231 23.4119C19.0911 23.3523 19.1592 23.2971 19.2229 23.2333C19.4185 23.0462 19.6057 22.8548 19.78 22.6592C19.797 22.6379 19.814 22.6167 19.831 22.5955C19.9331 22.4806 20.0266 22.3614 20.1201 22.2381C20.1669 22.1786 20.218 22.1192 20.2648 22.0554C20.269 22.0469 20.2733 22.0425 20.2775 22.034L20.2733 22.0384Z" fill="#F9ACAC"/>
<path d="M19.4061 20.1333C19.0404 18.5982 19.3338 16.3231 20.7541 15.5109C21.0093 15.3663 21.2559 15.3153 21.4983 15.3323L20.1248 15.009C19.7591 14.924 19.3764 15.0091 19.083 15.2472C18.5174 15.7064 18.0326 16.272 17.8243 17.6668C17.5649 19.4358 18.2963 20.8477 18.5812 21.239C18.6748 21.3708 18.8065 21.4642 18.9511 21.5195C19.0404 21.5535 19.134 21.5833 19.2318 21.5876L20.0951 21.6301C20.0951 21.6301 20.2608 21.6556 20.5415 21.5961C20.0057 21.6556 19.6528 21.1751 19.4061 20.1333Z" fill="#F99D9D"/>
<path d="M20.9704 20.4182C21.1788 20.1886 21.2171 19.6869 21.1661 19.3169C21.03 18.4026 20.7834 17.3352 20.4092 17.4245C20.0349 17.5138 19.9456 18.6066 20.1838 19.6315C20.4219 20.6563 20.7153 20.7031 20.9704 20.4182Z" fill="#281E1E"/>
<path d="M21.8899 18.2067C22.196 19.2146 22.3746 19.202 22.617 18.9C22.8084 18.6576 22.8721 18.3301 22.7956 17.9644C22.6042 17.0629 22.2087 16.272 21.8388 16.3868C21.4688 16.4974 21.5879 17.1989 21.8899 18.2067Z" fill="#281E1E"/>
<path d="M16.5903 15.9149C16.8242 15.8596 16.973 15.6257 16.9177 15.3918C16.8624 15.158 16.6285 15.0091 16.3947 15.0644C16.1608 15.1197 16.0119 15.3536 16.0672 15.5874C16.1225 15.8213 16.3565 15.9702 16.5903 15.9149Z" fill="#281E1E"/>
<path d="M19.2444 13.5251C19.3592 13.4401 19.3592 13.2401 19.2444 13.0785C19.1253 12.9169 18.9382 12.8575 18.8192 12.9425C18.7001 13.0276 18.7043 13.2273 18.8192 13.3889C18.9382 13.5505 19.1253 13.6102 19.2444 13.5251Z" fill="#281E1E"/>
<path d="M11.8877 12.2323C11.9812 12.2493 12.0748 12.279 12.1641 12.3172C12.0748 12.279 11.9812 12.2536 11.8877 12.2323Z" fill="#F99D9D"/>
<path d="M11.0117 15.8255C11.0117 15.7021 11.0202 15.5831 11.0287 15.4683C11.016 15.5831 11.0117 15.7021 11.0117 15.8255Z" fill="#F99D9D"/>
<path d="M12.6196 12.7723C12.6281 12.8744 12.5984 12.9765 12.5176 13.0531C12.5941 12.9765 12.6281 12.8744 12.6196 12.7723Z" fill="#F99D9D"/>
<path d="M12.0961 13.2996C12.3002 13.2188 12.4363 13.1339 12.5171 13.0531C12.432 13.1339 12.3002 13.2188 12.0961 13.2996Z" fill="#F99D9D"/>
<path d="M11.1265 17.131C11.1265 17.131 11.1265 17.1224 11.1265 17.1182C11.1351 16.9268 11.101 16.7441 11.084 16.6676C11.101 16.7484 11.1351 16.9268 11.1265 17.1182C11.1265 17.1182 11.1265 17.1268 11.1265 17.131Z" fill="#F99D9D"/>
<path d="M10.3022 14.4137C10.7487 12.4023 11.7948 12.245 11.8884 12.2322C11.7905 12.211 11.6928 12.1983 11.595 12.194C10.9954 12.1685 10.4128 12.4108 9.96626 12.8105C8.87765 13.7843 8.89462 15.1069 8.97116 15.7108C8.99668 15.9106 9.03075 16.0297 9.03075 16.0297C9.18384 16.5017 9.42624 16.8419 9.68138 17.0843C9.93653 17.3267 10.2087 17.4755 10.4213 17.5648C10.4766 17.5903 10.5361 17.5988 10.5914 17.5988C10.6041 17.5988 10.6169 17.5988 10.6297 17.5988C10.6849 17.5988 10.7402 17.5902 10.7955 17.5689C10.8507 17.5477 10.8976 17.518 10.9443 17.484C10.9486 17.484 10.9529 17.4754 10.9571 17.4711C11.0294 17.4073 11.0846 17.3265 11.1144 17.233C11.1016 17.267 11.0888 17.3054 11.0718 17.3351C10.013 15.9956 10.3065 14.4095 10.3065 14.4095L10.3022 14.4137Z" fill="#F99D9D"/>
<path d="M11.8881 12.2323C11.7945 12.2408 10.7485 12.4023 10.302 14.4137C10.302 14.4137 10.0086 15.9998 11.0674 17.3393C11.0844 17.3053 11.1014 17.2714 11.1099 17.2374C11.1184 17.2034 11.1269 17.1693 11.1269 17.1311C11.1269 17.1311 11.1269 17.1225 11.1269 17.1182C11.1354 16.9268 11.1013 16.7442 11.0843 16.6676C11.0801 16.6421 11.0758 16.6251 11.0758 16.6251C11.029 16.3402 11.0078 16.0721 11.0121 15.8255C11.0121 15.7021 11.0206 15.5831 11.0291 15.4683C11.0504 15.2387 11.0929 15.0303 11.1439 14.839C11.4331 13.7886 12.0965 13.2996 12.0965 13.2996C12.3006 13.2188 12.4366 13.1339 12.5174 13.0531C12.594 12.9765 12.628 12.8744 12.6195 12.7724C12.611 12.6703 12.5599 12.5724 12.4791 12.5002C12.3983 12.4321 12.3091 12.3811 12.2155 12.3386C12.1985 12.3301 12.1815 12.3257 12.1645 12.3172C12.0752 12.2832 11.9816 12.2536 11.8881 12.2323Z" fill="#F9ACAC"/>
<path d="M15.7695 10.2294C16.518 9.59575 17.3344 9.86356 17.8192 10.1272C18.0829 10.2718 18.2487 10.4164 18.2487 10.4164C18.27 9.80835 18.2147 8.12019 18.2147 8.12019C18.2147 7.22718 17.815 6.99334 17.815 6.99334C16.4287 6.71694 15.7695 10.2294 15.7695 10.2294Z" fill="#F9ACAC"/>
<path d="M15.7702 10.2295C15.7702 10.2295 16.4293 6.71712 17.8156 6.99352C17.8156 6.99352 16.9609 6.415 16.0211 7.53338L14.8857 8.84751C14.8942 8.88578 15.1621 9.715 15.7702 10.2295Z" fill="#F99D9D"/>
<path d="M11.4797 10.4973L11.7816 10.2039C10.0254 9.71915 8.55827 9.84679 8.55827 9.84679L8.63053 10.1614C8.63053 10.1614 8.19256 10.1615 8.02246 10.1827C10.1359 10.0679 11.4797 10.4973 11.4797 10.4973Z" fill="#F99D9D"/>
<path d="M8.55827 9.84674L8.02246 10.1827C8.19681 10.1657 8.63053 10.1613 8.63053 10.1613L8.55827 9.84674Z" fill="#DD9396"/>
<path d="M6.4578 20.8775C6.94257 22.5189 6.82353 24.8067 5.84973 25.0959C4.87593 25.385 3.42157 23.5606 2.9368 21.9192C2.45202 20.2778 3.24297 19.3125 4.21677 19.0233C5.19057 18.7341 5.97302 19.2361 6.4578 20.8775Z" fill="#4D98D3"/>
<path d="M36.3939 28.9399C33.2896 28.6082 25.2398 26.6095 19.2695 23.8241C19.0568 23.7263 18.908 23.5265 18.874 23.2926C18.8145 22.8801 18.6232 22.3784 18.0831 21.9702C17.7684 21.6172 17.4622 21.3238 17.3686 21.1112L16.8669 20.1118C16.6203 19.6185 16.0122 19.4229 15.5232 19.6866C15.1149 19.8907 14.9151 20.3372 15.0001 20.7667C13.2354 19.929 11.9086 20.5925 11.343 21.5323C10.4458 23.0248 11.6067 24.5981 12.8697 25.6229C13.5926 26.2097 14.1879 26.4946 15.2085 26.669C15.2085 26.669 15.2382 26.6733 15.2808 26.6819C21.9528 30.3091 32.2351 32.8904 36.0282 33.2731C36.1005 33.2816 36.1771 33.2857 36.2494 33.2857C37.3848 33.2857 38.35 32.4014 38.418 31.232C38.4861 30.0668 37.5591 29.0632 36.3981 28.9399H36.3939Z" fill="#4D98D3"/>
<path d="M40.8461 60.6756C40.3868 60.5225 39.7703 60.429 39.0856 60.429C38.401 60.429 37.7844 60.5225 37.3252 60.6756H36.5342V61.3178C36.5342 61.8069 37.6738 62.2065 39.0814 62.2065C40.4889 62.2065 41.6285 61.8069 41.6285 61.3178V60.6756H40.8376H40.8461Z" fill="#BFBFBF"/>
<path d="M39.0862 61.5643C40.493 61.5643 41.6334 61.1665 41.6334 60.6756C41.6334 60.1848 40.493 59.7869 39.0862 59.7869C37.6795 59.7869 36.5391 60.1848 36.5391 60.6756C36.5391 61.1665 37.6795 61.5643 39.0862 61.5643Z" fill="#D8D8D8"/>
<path d="M39.0856 61.203C40.0579 61.203 40.8461 60.9668 40.8461 60.6756C40.8461 60.3844 40.0579 60.1484 39.0856 60.1484C38.1133 60.1484 37.3252 60.3844 37.3252 60.6756C37.3252 60.9668 38.1133 61.203 39.0856 61.203Z" fill="#BFBFBF"/>
<path d="M44.491 58.8854C44.2103 58.7918 43.8318 58.7324 43.4151 58.7324C42.9984 58.7324 42.6199 58.7918 42.3392 58.8854H41.8545V59.2766C41.8545 59.5785 42.5519 59.821 43.4151 59.821C44.2783 59.821 44.9758 59.5785 44.9758 59.2766V58.8854H44.491Z" fill="#C06200"/>
<path d="M43.4151 59.4296C44.277 59.4296 44.9758 59.186 44.9758 58.8854C44.9758 58.5848 44.277 58.3412 43.4151 58.3412C42.5532 58.3412 41.8545 58.5848 41.8545 58.8854C41.8545 59.186 42.5532 59.4296 43.4151 59.4296Z" fill="#DD7F2A"/>
<path d="M43.4147 59.2084C44.0089 59.2084 44.4906 59.0639 44.4906 58.8854C44.4906 58.7069 44.0089 58.5621 43.4147 58.5621C42.8206 58.5621 42.3389 58.7069 42.3389 58.8854C42.3389 59.0639 42.8206 59.2084 43.4147 59.2084Z" fill="#C06200"/>
<path d="M47.5779 60.9734C47.2972 60.8798 46.9187 60.8201 46.502 60.8201C46.0853 60.8201 45.7068 60.8798 45.4261 60.9734H44.9414V61.3646C44.9414 61.6665 45.6388 61.9088 46.502 61.9088C47.3652 61.9088 48.0627 61.6665 48.0627 61.3646V60.9734H47.5779Z" fill="#C06200"/>
<path d="M46.502 61.5176C47.3639 61.5176 48.0627 61.274 48.0627 60.9734C48.0627 60.6728 47.3639 60.429 46.502 60.429C45.6401 60.429 44.9414 60.6728 44.9414 60.9734C44.9414 61.274 45.6401 61.5176 46.502 61.5176Z" fill="#DD7F2A"/>
<path d="M46.5026 61.2965C47.0968 61.2965 47.5785 61.1519 47.5785 60.9734C47.5785 60.7949 47.0968 60.6501 46.5026 60.6501C45.9084 60.6501 45.4268 60.7949 45.4268 60.9734C45.4268 61.1519 45.9084 61.2965 46.5026 61.2965Z" fill="#C06200"/>
<path d="M44.7484 26.0032C44.9186 25.3365 44.1564 24.5662 43.0459 24.2827C41.9354 23.9993 40.8973 24.3099 40.7271 24.9767C40.5569 25.6434 41.3191 26.4137 42.4296 26.6972C43.5401 26.9806 44.5782 26.6699 44.7484 26.0032Z" fill="#B693C2"/>
<path d="M27.6742 21.6432C27.8444 20.9764 27.0822 20.2062 25.9717 19.9227C24.8612 19.6392 23.8231 19.9499 23.6529 20.6167C23.4827 21.2834 24.2449 22.0538 25.3554 22.3372C26.4659 22.6207 27.504 22.3099 27.6742 21.6432Z" fill="#B693C2"/>
<path d="M38.0362 23.7904C37.9427 23.5735 37.7173 23.2842 37.1815 23.1481L31.5215 21.7024C30.9857 21.5663 30.6498 21.7109 30.4627 21.8598C30.2713 22.0086 30.0417 22.3062 30.046 22.8718C30.0502 24.2793 30.4414 25.8187 33.299 26.5459C33.9156 26.7032 34.4472 26.7712 34.9107 26.7712C36.6031 26.7712 37.3856 25.8483 37.9172 24.8788C38.1893 24.3813 38.134 24.0115 38.0362 23.7904Z" fill="#281E1E"/>
<path d="M38.789 21.1878C38.2957 22.2127 38.6614 23.4415 39.6054 23.939C40.5494 24.4366 41.7104 24.0071 42.2036 22.9822C42.6969 21.9574 42.3311 20.7286 41.3871 20.2311C40.4431 19.7335 39.2822 20.163 38.789 21.1878Z" fill="#281E1E"/>
<path d="M40.4424 22.3574C40.5147 22.3106 40.5828 22.268 40.6636 22.2893C40.7529 22.3106 40.8209 22.3787 40.9017 22.4085C41.2292 22.5233 41.6077 22.1916 41.68 21.8173C41.7352 21.5324 41.6417 21.2262 41.4503 21.0476C41.1356 20.7542 40.7062 20.618 40.2852 20.7329C40.0215 20.8051 39.7748 20.9626 39.5749 21.1795C39.3198 21.4601 39.2986 21.9278 39.5112 22.2297C39.6303 22.3998 39.8088 22.4935 39.9959 22.5063C40.1107 22.5148 40.2256 22.4806 40.3276 22.4253C40.3616 22.4083 40.3957 22.3828 40.4297 22.3616L40.4424 22.3574Z" fill="white"/>
<path d="M41.279 23.4332C41.2909 23.1987 41.059 22.9963 40.7611 22.9812C40.4632 22.9661 40.2121 23.144 40.2002 23.3786C40.1883 23.6131 40.4202 23.8155 40.7181 23.8306C41.016 23.8457 41.2671 23.6678 41.279 23.4332Z" fill="white"/>
<path d="M27.2516 18.7427C26.9709 19.8483 27.6385 20.9708 28.7399 21.2557C29.8455 21.5363 30.9682 20.873 31.2532 19.7673C31.5381 18.6617 30.8662 17.5392 29.7648 17.2543C28.6592 16.9737 27.5365 17.6413 27.2516 18.7427Z" fill="#281E1E"/>
<path d="M29.059 19.4784C29.1228 19.4189 29.1866 19.3593 29.2759 19.3636C29.3737 19.3636 29.463 19.4146 29.5566 19.4273C29.9265 19.4698 30.2497 19.0659 30.2412 18.6831C30.2327 18.3897 30.0668 18.1134 29.8244 17.9815C29.4247 17.7604 28.9442 17.7221 28.5274 17.9219C28.268 18.0495 28.0427 18.2536 27.8853 18.5087C27.6812 18.8362 27.7663 19.2998 28.0597 19.5506C28.2213 19.691 28.4339 19.7463 28.6337 19.7166C28.7528 19.6995 28.8676 19.6442 28.9654 19.5677C28.9995 19.5422 29.0292 19.5123 29.059 19.4825V19.4784Z" fill="white"/>
<path d="M29.6205 20.7875C29.9374 20.7477 30.1702 20.5245 30.1406 20.2891C30.111 20.0538 29.8302 19.8954 29.5133 19.9353C29.1964 19.9751 28.9634 20.1981 28.993 20.4335C29.0227 20.6688 29.3036 20.8274 29.6205 20.7875Z" fill="white"/>
</svg>
