<svg width="18" height="18" viewBox="0 0 18 18" fill="none" xmlns="http://www.w3.org/2000/svg">
<path d="M2.7601 9.75001L2.3641 10.149C2.46945 10.2534 2.61177 10.312 2.7601 10.312C2.90843 10.312 3.05076 10.2534 3.1561 10.149L2.7601 9.75001ZM4.4161 8.89951C4.52212 8.79428 4.582 8.65125 4.58257 8.50188C4.58313 8.3525 4.52433 8.20903 4.4191 8.10301C4.367 8.05051 4.30507 8.00879 4.23685 7.98023C4.16862 7.95167 4.09544 7.93682 4.02148 7.93655C3.8721 7.93598 3.72862 7.99478 3.6226 8.10001L4.4161 8.89951ZM1.8961 8.10001C1.7896 7.9979 1.64724 7.94173 1.49971 7.9436C1.35218 7.94547 1.21129 8.00523 1.1074 8.11C1.00352 8.21477 0.944958 8.35616 0.944341 8.5037C0.943724 8.65124 1.0011 8.79312 1.1041 8.89876L1.8961 8.10001ZM13.9621 5.54401C13.9998 5.60893 14.0501 5.66565 14.1101 5.71083C14.1701 5.756 14.2385 5.78871 14.3113 5.80702C14.3841 5.82534 14.4598 5.8289 14.5341 5.81748C14.6083 5.80607 14.6794 5.77991 14.7434 5.74055C14.8073 5.7012 14.8627 5.64944 14.9063 5.58833C14.95 5.52722 14.9809 5.458 14.9974 5.38474C15.0138 5.31149 15.0154 5.23568 15.0021 5.16179C14.9888 5.0879 14.9608 5.01742 14.9199 4.95451L13.9621 5.54401ZM9.05936 1.68751C5.27411 1.68751 2.19685 4.73326 2.19685 8.49976H3.32185C3.32185 5.36326 5.88686 2.81251 9.05936 2.81251V1.68751ZM2.19685 8.49976V9.75001H3.32185V8.49976H2.19685ZM3.15685 10.1498L4.4161 8.89951L3.6226 8.10001L2.3626 9.35026L3.15685 10.1498ZM3.15685 9.35101L1.8961 8.10001L1.10335 8.89876L2.36335 10.1483L3.15685 9.35101ZM14.9199 4.95601C14.304 3.95568 13.442 3.12996 12.4161 2.55774C11.3903 1.98551 10.234 1.68589 9.05936 1.68751V2.81251C10.042 2.81061 11.0095 3.0608 11.8679 3.53916C12.7262 4.01752 13.4475 4.70805 13.9629 5.54476L14.9199 4.95601ZM15.2356 8.25001L15.6309 7.85026C15.5256 7.74629 15.3836 7.68799 15.2356 7.68799C15.0876 7.68799 14.9456 7.74629 14.8404 7.85026L15.2356 8.25001ZM13.5751 9.09976C13.5226 9.15171 13.4808 9.21351 13.4521 9.28161C13.4234 9.34972 13.4085 9.42281 13.408 9.4967C13.4072 9.64593 13.4657 9.78939 13.5706 9.89551C13.6755 10.0016 13.8183 10.0617 13.9675 10.0626C14.1168 10.0634 14.2602 10.0049 14.3664 9.90001L13.5751 9.09976ZM16.1049 9.90001C16.1571 9.95331 16.2194 9.99569 16.2882 10.0247C16.357 10.0537 16.4308 10.0687 16.5055 10.0688C16.5801 10.069 16.654 10.0543 16.7229 10.0255C16.7918 9.99684 16.8543 9.95471 16.9068 9.90161C16.9592 9.84851 17.0006 9.7855 17.0285 9.71626C17.0563 9.64701 17.0701 9.57292 17.0691 9.49829C17.068 9.42366 17.0521 9.34998 17.0223 9.28156C16.9924 9.21314 16.9493 9.15134 16.8954 9.09976L16.1049 9.90001ZM3.9886 12.4545C3.91023 12.3275 3.78462 12.2368 3.6394 12.2024C3.49417 12.1681 3.34124 12.1928 3.21423 12.2711C3.08722 12.3495 2.99655 12.4751 2.96216 12.6203C2.92777 12.7656 2.95248 12.9185 3.03085 13.0455L3.9886 12.4545ZM8.91235 16.3125C12.7089 16.3125 15.7974 13.269 15.7974 9.50026H14.6724C14.6724 12.6353 12.0999 15.1875 8.91235 15.1875V16.3125ZM15.7974 9.50026V8.25001H14.6724V9.50026H15.7974ZM14.8404 7.85026L13.5751 9.09976L14.3664 9.90001L15.6309 8.64976L14.8404 7.85026ZM14.8404 8.64976L16.1049 9.90001L16.8954 9.09976L15.6309 7.85026L14.8404 8.64976ZM3.0301 13.0448C3.65008 14.0461 4.51605 14.8721 5.54556 15.4441C6.57508 16.0161 7.73386 16.3151 8.9116 16.3125V15.1875C7.92587 15.19 6.9559 14.9402 6.09403 14.4618C5.23216 13.9834 4.50784 13.2924 3.9886 12.4545L3.0301 13.0448Z" fill="white"/>
<path d="M6.65953 5.92818H9.30456C9.83402 5.92818 10.2852 6.02831 10.6581 6.22859C11.0334 6.42657 11.3165 6.70281 11.5076 7.05732C11.701 7.40953 11.7977 7.81354 11.7977 8.26934C11.7977 8.72744 11.701 9.1326 11.5076 9.48481C11.3142 9.83702 11.0288 10.1121 10.6512 10.3101C10.2737 10.5081 9.81906 10.607 9.28729 10.607H7.9268V13H6.65953V5.92818ZM9.11809 9.56077C9.42657 9.56077 9.68324 9.50668 9.88812 9.39848C10.0953 9.29029 10.2484 9.1395 10.3474 8.94613C10.4487 8.75276 10.4993 8.52716 10.4993 8.26934C10.4993 7.87569 10.3831 7.56492 10.1506 7.33702C9.92035 7.10681 9.5739 6.99171 9.11119 6.99171H7.9268V9.56077H9.11809Z" fill="white"/>
</svg>
